HIERARCHY
ROOT Hips
{
	OFFSET 0.000000 0.000000 0.000000
	CHANNELS 6 Xposition Yposition Zposition Zrotation Yrotation Xrotation 
	JOINT LeftUpLeg_virtual
	{
		OFFSET 0.000000 0.000000 0.000000
		CHANNELS 3 Zrotation Yrotation Xrotation
		JOINT LeftUpLeg
		{
			OFFSET 8.479694 -4.795517 -0.379053
			CHANNELS 3 Zrotation Yrotation Xrotation
			JOINT LeftLeg
			{
				OFFSET 0.485052 -32.551468 0.112863
				CHANNELS 3 Zrotation Yrotation Xrotation
				JOINT LeftFoot
				{
					OFFSET 0.438033 -32.635670 -3.012641
					CHANNELS 3 Zrotation Yrotation Xrotation
					JOINT LeftToeBase
					{
						OFFSET 0.970169 -13.225353 11.864223
						CHANNELS 3 Zrotation Yrotation Xrotation
						End Site
						{
							OFFSET 0.000000 0.000000 0.000000
						}
					}
				}
			}
		}
	}
	JOINT RightUpLeg_virtual
	{
		OFFSET 0.000000 0.000000 0.000000
		CHANNELS 3 Zrotation Yrotation Xrotation
		JOINT RightUpLeg
		{
			OFFSET -8.479694 -4.795517 -0.379053
			CHANNELS 3 Zrotation Yrotation Xrotation
			JOINT RightLeg
			{
				OFFSET -0.484100 -32.551483 0.112903
				CHANNELS 3 Zrotation Yrotation Xrotation
				JOINT RightFoot
				{
					OFFSET -0.438985 -32.635651 -3.012681
					CHANNELS 3 Zrotation Yrotation Xrotation
					JOINT RightToeBase
					{
						OFFSET -0.970169 -13.225354 11.864223
						CHANNELS 3 Zrotation Yrotation Xrotation
						End Site
						{
							OFFSET 0.000000 0.000000 0.000000
						}
					}
				}
			}
		}
	}
	JOINT Spine_virtual
	{
		OFFSET 0.000000 0.000000 0.000000
		CHANNELS 3 Zrotation Yrotation Xrotation
		JOINT Spine
		{
			OFFSET 0.000000 7.722015 1.166203
			CHANNELS 3 Zrotation Yrotation Xrotation
			JOINT Spine1
			{
				OFFSET 0.000000 12.024086 0.248766
				CHANNELS 3 Zrotation Yrotation Xrotation
				JOINT Spine2
				{
					OFFSET -0.000000 11.503036 -0.491240
					CHANNELS 3 Zrotation Yrotation Xrotation
					JOINT Neck_virtual
					{
						OFFSET 0.000000 0.000000 0.000000
						CHANNELS 3 Zrotation Yrotation Xrotation
						JOINT Neck
						{
							OFFSET 0.000000 18.430687 -3.123054
							CHANNELS 3 Zrotation Yrotation Xrotation
							JOINT Head
							{
								OFFSET -0.000000 9.051071 1.034021
								CHANNELS 3 Zrotation Yrotation Xrotation
								End Site
								{
									OFFSET 0.000000 0.000000 0.000000
								}
							}
						}
					}
					JOINT LeftShoulder_virtual
					{
						OFFSET 0.000000 0.000000 0.000000
						CHANNELS 3 Zrotation Yrotation Xrotation
						JOINT LeftShoulder
						{
							OFFSET 6.197824 13.665230 -4.064723
							CHANNELS 3 Zrotation Yrotation Xrotation
							JOINT LeftArm
							{
								OFFSET 7.778132 -0.187073 -1.709282
								CHANNELS 3 Zrotation Yrotation Xrotation
								JOINT LeftForeArm
								{
									OFFSET 21.954697 0.000000 -2.041093
									CHANNELS 3 Zrotation Yrotation Xrotation
									JOINT LeftHand
									{
										OFFSET 22.992908 0.000000 -0.870901
										CHANNELS 3 Zrotation Yrotation Xrotation
										End Site
										{
											OFFSET 0.000000 0.000000 0.000000
										}
									}
								}
							}
						}
					}
					JOINT RightShoulder_virtual
					{
						OFFSET 0.000000 0.000000 0.000000
						CHANNELS 3 Zrotation Yrotation Xrotation
						JOINT RightShoulder
						{
							OFFSET -6.197824 13.665230 -4.064723
							CHANNELS 3 Zrotation Yrotation Xrotation
							JOINT RightArm
							{
								OFFSET -7.778132 -0.187073 -1.709282
								CHANNELS 3 Zrotation Yrotation Xrotation
								JOINT RightForeArm
								{
									OFFSET -21.954697 0.000000 -2.041093
									CHANNELS 3 Zrotation Yrotation Xrotation
									JOINT RightHand
									{
										OFFSET -22.992908 0.000000 -0.870901
										CHANNELS 3 Zrotation Yrotation Xrotation
										End Site
										{
											OFFSET 0.000000 0.000000 0.000000
										}
									}
								}
							}
						}
					}
				}
			}
		}
	}
}
MOTION
Frames: 10
Frame Time: 0.033333
2.384016 81.532898 20.720716 -179.962453 -0.412340 179.695966 -5.609609 1.846639 13.934528 7.412481 -5.390774 -20.581564 4.423445 6.894327 27.798202 1.093817 -4.280700 -9.814794 0.000000 0.000000 0.000000 -2.437577 0.698433 14.333738 -2.514323 -1.067374 -13.656868 -1.597007 2.240508 21.149134 6.890603 4.837912 -7.146419 0.000000 0.000000 0.000000 -0.026940 3.213232 3.760576 -2.764264 0.318113 -4.856745 -0.274161 -2.715523 4.049434 0.025870 0.008188 -0.059266 -0.622618 -1.479111 3.390710 0.106274 0.857622 -15.533339 0.000000 0.000000 0.000000 1.133556 -0.528855 0.728042 10.992595 4.995503 -2.959716 -8.386256 -0.531189 -40.821029 3.634176 -31.611215 -5.334624 0.000000 0.000000 0.000000 -3.497858 0.693433 -0.164999 7.339311 -12.118254 -0.480670 16.531170 -11.417797 -52.021326 -1.988258 33.702390 -6.018370 0.000000 0.000000 0.000000 
2.382305 81.534233 20.734121 -179.999882 -0.411848 179.586382 -5.569829 1.727683 13.809720 7.365790 -5.484548 -20.698583 4.197272 6.957062 27.635034 1.027598 -4.284412 -9.825622 0.000000 0.000000 0.000000 -2.484703 0.635446 14.302859 -2.484720 -1.236191 -13.684931 -1.560478 1.880045 21.074188 6.748762 4.664142 -7.133295 0.000000 0.000000 0.000000 -0.032230 3.241105 3.821456 -2.780157 0.349616 -4.778328 -0.294423 -2.681830 4.093784 -0.012085 0.029976 -0.082498 -0.575296 -1.436479 3.269698 0.114127 0.855633 -15.540946 0.000000 0.000000 0.000000 1.164627 -0.535737 0.690465 10.983474 4.957659 -2.993856 -8.380072 -0.609663 -40.869492 3.642154 -31.595608 -5.340408 0.000000 0.000000 0.000000 -3.428978 0.618068 -0.214848 7.326209 -12.193294 -0.560337 16.529411 -11.343205 -52.068335 -1.875829 33.662574 -6.015006 0.000000 0.000000 0.000000 
2.385412 81.539581 20.745514 179.970949 -0.398257 179.591601 -5.485505 1.705734 13.803840 7.286984 -5.555241 -20.690815 4.112194 6.896213 27.606460 1.125522 -4.090624 -9.796078 0.000000 0.000000 0.000000 -2.312237 0.623163 14.283216 -2.679427 -1.373897 -13.691004 -1.655596 1.745123 21.096357 7.002742 4.913556 -7.149377 0.000000 0.000000 0.000000 -0.051688 3.225407 3.821843 -2.797703 0.337301 -4.761702 -0.299629 -2.690609 4.089323 -0.008619 0.010687 -0.111101 -0.559833 -1.406687 3.298451 0.111983 0.861284 -15.632408 0.000000 0.000000 0.000000 1.187505 -0.512267 0.677382 10.958731 4.943304 -3.021567 -8.419474 -0.559947 -40.883812 3.547489 -31.636016 -5.041494 0.000000 0.000000 0.000000 -3.413410 0.680662 -0.149579 7.354186 -12.135732 -0.550571 16.531080 -11.345665 -52.028170 -1.951186 33.609517 -5.949163 0.000000 0.000000 0.000000 
2.386633 81.535347 20.755531 179.980498 -0.366840 179.611285 -5.539381 1.717280 13.789208 7.330349 -5.533676 -20.699645 4.147908 6.967260 27.604249 1.094091 -4.174123 -9.819378 0.000000 0.000000 0.000000 -2.438674 0.668112 14.259272 -2.579156 -1.308885 -13.711914 -1.612473 1.776810 21.069238 6.893505 4.801902 -7.111230 0.000000 0.000000 0.000000 -0.060942 3.198963 3.803156 -2.798811 0.328298 -4.760239 -0.309280 -2.676876 4.087722 -0.016755 0.032170 -0.088692 -0.562485 -1.399264 3.267672 0.096162 0.890262 -15.646218 0.000000 0.000000 0.000000 1.226068 -0.555236 0.644433 10.988964 4.907113 -3.051536 -8.484674 -0.473318 -40.764878 3.577572 -31.519335 -5.287792 0.000000 0.000000 0.000000 -3.414448 0.694894 -0.172054 7.334778 -12.104175 -0.612080 16.513215 -11.327875 -51.958550 -1.863878 33.634478 -5.859312 0.000000 0.000000 0.000000 
2.390729 81.534164 20.762726 -179.975881 -0.378330 179.611108 -5.527281 1.703417 13.788286 7.353348 -5.533096 -20.704749 4.186106 6.976055 27.607252 1.070240 -4.221996 -9.814065 0.000000 0.000000 0.000000 -2.422765 0.641362 14.261448 -2.550360 -1.287805 -13.710556 -1.566008 1.837993 21.060893 6.833661 4.730589 -7.114373 0.000000 0.000000 0.000000 -0.029191 3.212086 3.788095 -2.797149 0.337603 -4.784453 -0.295332 -2.680089 4.083283 -0.008756 0.022315 -0.082190 -0.586727 -1.413901 3.287318 0.100353 0.823654 -15.595818 0.000000 0.000000 0.000000 1.189962 -0.570338 0.635490 10.934429 4.916165 -3.120096 -8.476021 -0.592252 -40.641118 3.563956 -31.476524 -5.228824 0.000000 0.000000 0.000000 -3.454459 0.682158 -0.214431 7.403525 -12.074654 -0.499110 16.502287 -11.293776 -51.904933 -1.966975 33.590515 -5.981676 0.000000 0.000000 0.000000 
2.394537 81.537041 20.770483 -179.960144 -0.437671 179.597038 -5.419506 1.667274 13.801960 7.255643 -5.598203 -20.705913 4.137977 6.905930 27.589463 1.095073 -4.102247 -9.780208 0.000000 0.000000 0.000000 -2.327225 0.593609 14.273547 -2.647323 -1.370105 -13.702159 -1.602073 1.780168 21.078691 6.936653 4.833336 -7.148580 0.000000 0.000000 0.000000 -0.012071 3.196495 3.846985 -2.789516 0.322766 -4.780320 -0.312539 -2.691255 4.053884 -0.072611 0.011421 -0.155712 -0.517431 -1.374520 3.339057 0.108299 0.935725 -15.630193 0.000000 0.000000 0.000000 1.229868 -0.532327 0.733892 10.912708 4.922325 -3.064299 -8.505350 -0.660943 -40.751825 3.482887 -31.474755 -5.205951 0.000000 0.000000 0.000000 -3.399380 0.748754 -0.151029 7.406602 -12.056740 -0.459070 16.552753 -11.330142 -51.776430 -2.102493 33.551679 -6.126963 0.000000 0.000000 0.000000 
2.397084 81.536072 20.776054 179.989213 -0.464351 179.615015 -5.418641 1.613176 13.799934 7.213710 -5.649840 -20.726786 4.128874 6.847211 27.585251 1.137377 -4.047133 -9.760103 0.000000 0.000000 0.000000 -2.340671 0.521224 14.275217 -2.681094 -1.401936 -13.717142 -1.605099 1.750444 21.049315 7.005586 4.901499 -7.151943 0.000000 0.000000 0.000000 -0.046475 3.164613 3.810715 -2.816316 0.317446 -4.781293 -0.306179 -2.686816 4.080405 -0.020309 0.005722 -0.077602 -0.547416 -1.385357 3.290205 0.101217 0.852091 -15.624049 0.000000 0.000000 0.000000 1.214805 -0.539047 0.674349 10.895314 4.928607 -3.018347 -8.536528 -0.653049 -40.562489 3.649844 -31.429669 -5.339387 0.000000 0.000000 0.000000 -3.411353 0.661854 -0.184622 7.346370 -12.078467 -0.533300 16.543015 -11.235768 -51.867514 -1.956466 33.642308 -5.916224 0.000000 0.000000 0.000000 
2.393460 81.537453 20.776981 179.996003 -0.466464 179.608499 -5.424989 1.604313 13.808425 7.198873 -5.651092 -20.729047 4.116183 6.856058 27.593244 1.128393 -4.046529 -9.753058 0.000000 0.000000 0.000000 -2.356651 0.508413 14.275439 -2.685990 -1.402170 -13.712026 -1.601406 1.764540 21.053483 6.989000 4.887956 -7.151150 0.000000 0.000000 0.000000 -0.049260 3.147433 3.839379 -2.827740 0.321873 -4.781772 -0.302739 -2.682850 4.088212 -0.010128 0.004148 -0.075018 -0.576547 -1.373810 3.278239 0.105969 0.868550 -15.599602 0.000000 0.000000 0.000000 1.181989 -0.533415 0.669246 10.892735 4.933578 -3.017290 -8.566155 -0.681750 -40.533799 3.664098 -31.406719 -5.366738 0.000000 0.000000 0.000000 -3.430929 0.672491 -0.175068 7.359213 -12.079955 -0.518834 16.506327 -11.184504 -51.852945 -1.966587 33.645833 -5.940721 0.000000 0.000000 0.000000 
2.387480 81.534569 20.769754 -179.979487 -0.389270 179.616695 -5.496485 1.657939 13.806287 7.335392 -5.556300 -20.737603 4.159985 6.984093 27.610889 1.096019 -4.172770 -9.791209 0.000000 0.000000 0.000000 -2.395297 0.587296 14.245385 -2.599062 -1.332793 -13.716008 -1.552158 1.823287 21.058628 6.880577 4.775850 -7.108969 0.000000 0.000000 0.000000 -0.030503 3.138717 3.821718 -2.822598 0.341099 -4.789381 -0.284584 -2.661649 4.104772 0.017642 0.016671 -0.086304 -0.597897 -1.396333 3.265510 0.131848 0.856356 -15.573195 0.000000 0.000000 0.000000 1.130504 -0.477020 0.677101 10.900878 4.984491 -3.215251 -8.563693 -0.740632 -40.545734 3.544745 -31.347747 -5.210557 0.000000 0.000000 0.000000 -3.467105 0.703008 -0.208265 7.394783 -12.057484 -0.486870 16.468684 -11.194700 -51.759590 -1.976656 33.631988 -5.973106 0.000000 0.000000 0.000000 
2.387216 81.532898 20.755407 -179.990361 -0.406234 179.615479 -5.519381 1.657471 13.801398 7.349932 -5.550990 -20.736606 4.156189 6.987863 27.633453 1.084271 -4.185851 -9.782871 0.000000 0.000000 0.000000 -2.425896 0.577746 14.232356 -2.584169 -1.344818 -13.700514 -1.536730 1.829476 21.073799 6.862735 4.763259 -7.112123 0.000000 0.000000 0.000000 -0.047931 3.130010 3.823091 -2.836213 0.347782 -4.786545 -0.292103 -2.650040 4.117554 -0.001943 0.018278 -0.080643 -0.572582 -1.367080 3.270028 0.136596 0.868363 -15.533940 0.000000 0.000000 0.000000 1.177006 -0.520899 0.659456 10.909868 4.955013 -3.195327 -8.630219 -0.690597 -40.447311 3.576396 -31.279244 -5.209096 0.000000 0.000000 0.000000 -3.422869 0.691267 -0.207486 7.390995 -12.065644 -0.442851 16.489467 -11.143381 -51.725811 -2.018989 33.632715 -5.976635 0.000000 0.000000 0.000000 
